<svg xmlns="http://www.w3.org/2000/svg" id="Layer_1_1_" height="512" viewBox="0 0 64 64" width="512"><path d="m50.936 54.976-1.906-35.26-7.309-2.37-.928 2.32c.032.089.053.182.059.28l2 37c.015.274-.084.542-.273.742-.189.199-.452.312-.726.312h-5.853v-2h3.944l-1.906-35.26-7.309-2.37-2.801 7.001c-.118.294-.367.515-.674.595-.083.023-.169.034-.254.034-.225 0-.445-.076-.625-.219l-3.375-2.7v32.919h-2v-32.919l-3.375 2.7c-.248.198-.573.269-.88.186-.307-.081-.556-.301-.674-.595l-2.808-7.019-7.302 2.386-1.905 35.261h3.944v4h1 12 2 12 1v-1.024h9.992v-2h-2c-.272 0-.532-.111-.721-.307s-.289-.461-.278-.733l1-25 1.998.08-.958 23.96zm-13.936-2.976h2v2h-2zm-30 2h-2v-2h2zm2.959 2-.958-23.96 1.998-.08.962 24.04zm9.041-4h-2v-2h2zm0-10h-2v-2h2zm0-10h-2v-2h2zm15.041 24h-2.002l.962-24.04 1.998.08zm13.951-5.024h2v2h-2z"></path><path d="m53.858 7h3.284c.447 1.72 1.999 3 3.858 3 .553 0 1-.448 1-1v-6c0-.552-.447-1-1-1-1.859 0-3.411 1.28-3.858 3h-3.284c-.447-1.72-1.999-3-3.858-3h-3v2h3c.737 0 1.375.405 1.722 1h-13.864c-.447-1.72-1.999-3-3.858-3h-3v2h3c.737 0 1.375.405 1.722 1h-8.864c-.447-1.72-1.999-3-3.858-3h-3v2h3c.737 0 1.375.405 1.722 1h-17.864c-.447-1.72-1.999-3-3.858-3-.553 0-1 .448-1 1v6c0 .552.447 1 1 1 1.859 0 3.411-1.28 3.858-3h17.864c-.347.595-.985 1-1.722 1h-1c-.553 0-1 .448-1 1v5.247l-6.635 1.475 3.063 7.656 4.572-3.544 4.572 3.543 3.063-7.656-6.635-1.474v-4.247c1.859 0 3.411-1.28 3.858-3h8.864c-.347.595-.985 1-1.722 1h-1c-.553 0-1 .448-1 1v4.22l-1.882.418 1.19 2.541 7.724 2.504 1.595-3.986-6.627-1.473v-3.224c1.859 0 3.411-1.28 3.858-3h13.864c-.347.595-.985 1-1.722 1h-1c-.553 0-1 .448-1 1v3.198l-3.717.826.434 1.952 4.283-.952 8.318 1.849 2.064 4.127h-9.382v2h1.518l1.482 21h4v-21h4c.347 0 .668-.18.851-.474.183-.295.199-.663.044-.973l-3-6c-.135-.269-.384-.463-.678-.529l-8.217-1.826v-2.198c1.859 0 3.411-1.28 3.858-3z"></path></svg>